<?xml version="1.0" standalone="no"?> <!DOCTYPE svg PUBLIC "-//W3C//DTD SVG 1.0//EN" "http://www.w3.org/TR/2001/REC-SVG-20010904/DTD/svg10.dtd" > <svg xmlns="http://www.w3.org/2000/svg" width="100%" height="100%">
<defs >
<font id="gotham-light" horiz-adv-x="594" ><font-face
    font-family="Gotham"
    units-per-em="1000"
    panose-1="2 0 6 3 3 0 0 2 0 4"
    ascent="730"
    descent="-161"
    alphabetic="0" />
<missing-glyph horiz-adv-x="500" />
<glyph unicode=" " glyph-name="space" horiz-adv-x="300" />
<glyph unicode="!" glyph-name="exclam" horiz-adv-x="252" d="M155 700V630L140 183H112L97 630V700H155ZM93 0V85H159V0H93Z" />
<glyph unicode="&quot;" glyph-name="quotedbl" horiz-adv-x="410" d="M283 700H348V695L277 446H248L283 700ZM103 700H168V695L97 446H68L103 700Z" />
<glyph unicode="#" glyph-name="numbersign" horiz-adv-x="700" d="M522 470L481 234H610V187H473L441 0H393L425 187H218L186 0H138L170 187H49V234H178L219 470H89V517H227L258 700H306L275 517H482L513 700H561L530 517H650V470H522ZM267 470L226 234H433L474
470H267Z" />
<glyph unicode="$" glyph-name="dollar" horiz-adv-x="632" d="M559 185Q559 145 544 112T500 55T432 16T345 0V-98H297V1Q228 7 171 33T60 108L93 147Q140 103 189 78T299 47V331Q243 343 203 360T137 400T99 452T87 519Q87 557 102 589T146 646T212 684T297
700V758H345V698Q403 693 448 673T538 616L505 577Q466 612 427 630T343 653V372Q457 348 508 303T559 185ZM299 655Q263 654 233 644T182 615T150 574T138 523Q138 498 145 478T170 440T219 408T299 382V655ZM508 181Q508 207 501 228T475 266T424 296T343 321V45Q380
46 410 57T463 86T496 128T508 181Z" />
<glyph unicode="%" glyph-name="percent" horiz-adv-x="824" d="M363 530Q363 494 352 462T321 405T272 365T208 350Q173 350 145 364T97 403T66 460T55 528Q55 564 66 596T97 653T146 693T210 708Q244 708 272 694T321 655T352 598T363 530ZM182 0H128L642 700H696L182
0ZM769 172Q769 136 758 104T727 47T678 7T614 -8Q579 -8 551 6T503 45T472 102T461 170Q461 206 472 238T503 295T552 335T616 350Q650 350 678 336T727 297T758 240T769 172ZM311 528Q311 558 303 583T281 626T248 655T208 665Q186 665 168 655T136 626T115 583T107
530Q107 500 115 475T137 432T170 403T210 393Q232 393 250 403T282 432T303 474T311 528ZM717 170Q717 200 709 225T687 268T654 297T614 307Q592 307 574 297T542 268T521 225T513 172Q513 142 521 117T543 74T576 45T616 35Q638 35 656 45T688 74T709 116T717
170Z" />
<glyph unicode="&amp;" glyph-name="ampersand" horiz-adv-x="696" d="M622 -14L501 111Q451 53 393 22T264 -10Q218 -10 179 4T111 44T66 105T49 185Q49 257 96 308T230 391Q190 436 171 471T152 552Q152 586 165 615T201 666T256 700T327 712Q361 712 390 700T441
668T475 619T488 559Q488 492 443 449T316 377L500 188Q526 224 548 267T591 358L638 339Q614 285 589 238T534 153L663 20L622 -14ZM436 557Q436 605 405 636T325 668Q298 668 276 659T238 635T213 599T204 554Q204 537 208 522T221 490T246 454T285 409Q436 457
436 557ZM261 359Q177 330 139 285T101 187Q101 155 113 127T147 79T199 47T265 35Q324 35 374 64T468 145L261 359Z" />
<glyph unicode="&apos;" glyph-name="quotesingle" horiz-adv-x="230" d="M103 700H168V695L97 446H68L103 700Z" />
<glyph unicode="(" glyph-name="parenleft" horiz-adv-x="430" d="M369 682Q250 609 187 511T123 287Q123 161 186 63T369 -108L348 -141Q215 -66 143 42T71 287Q71 424 143 532T348 715L369 682V682Z" />
<glyph unicode=")" glyph-name="parenright" horiz-adv-x="430" d="M82 715Q215 640 287 532T359 287Q359 150 287 42T82 -141L61 -108Q180 -35 243 63T307 287Q307 413 244 511T61 682L82 715Z" />
<glyph unicode="*" glyph-name="asterisk" horiz-adv-x="430" d="M333 461L227 533L236 406H194L203 533L97 461L75 498L193 554L75 610L97 647L203 575L194 702H236L227 575L333 647L355 610L237 554L355 498L333 461Z" />
<glyph unicode="+" glyph-name="plus" horiz-adv-x="640" d="M295 591H345V376H562V328H345V113H295V328H78V376H295V591Z" />
<glyph unicode="," glyph-name="comma" horiz-adv-x="230" d="M53 -82Q85 -65 98 -47T109 0H82V85H148V11Q148 -36 129 -63T65 -107L53 -82V-82Z" />
<glyph unicode="-" glyph-name="hyphen" horiz-adv-x="408" d="M70 269V325H338V269H70Z" />
<glyph unicode="." glyph-name="period" horiz-adv-x="230" d="M82 0V85H148V0H82Z" />
<glyph unicode="/" glyph-name="slash" horiz-adv-x="500" d="M503 798L31 -128H-18L454 798H503Z" />
<glyph unicode="0" glyph-name="zero" horiz-adv-x="710" d="M645 351Q645 278 625 213T566 97T475 18T354 -12Q287 -12 234 17T143 95T85 210T65 349Q65 422 85 487T144 603T235 682T356 712Q423 712 476 683T567 605T625 490T645 351ZM591 349Q591 410 575 467T527
568T452 638T354 665Q300 665 257 639T183 570T136 469T119 351Q119 289 135 232T183 132T258 62T356 35Q410 35 453 61T527 130T574 230T591 349Z" />
<glyph unicode="1" glyph-name="one" horiz-adv-x="335" d="M190 705H230V0H179V651L44 605L30 646L190 705Z" />
<glyph unicode="2" glyph-name="two" horiz-adv-x="590" d="M306 664Q239 664 192 631T101 534L62 560Q85 595 109 622T163 669T229 699T311 710Q356 710 394 696T459 655T503 594T519 517Q519 481 509 450T478 387T423 321T344 244L130 50H526V0H48V39L309 275Q352
314 381 346T429 406T456 460T464 514Q464 548 451 576T417 623T366 653T306 664Z" />
<glyph unicode="3" glyph-name="three" horiz-adv-x="610" d="M90 651V700H528V663L291 392Q341 389 386 376T465 338T519 277T539 193Q539 147 521 109T471 44T398 3T311 -12Q225 -12 161 23T54 114L94 147Q136 93 189 64T312 35Q347 35 378 46T433 78T471 127T485
191Q485 228 469 256T423 304T354 334T267 344H229L216 373L457 651H90Z" />
<glyph unicode="4" glyph-name="four" horiz-adv-x="664" d="M495 705V216H609V171H495V0H445V171H66L48 210L448 705H495ZM445 630L111 216H445V630Z" />
<glyph unicode="5" glyph-name="five" horiz-adv-x="605" d="M122 700H515V650H168L151 388Q185 405 221 415T306 426Q357 426 400 411T476 367T527 300T546 214Q546 164 528 123T477 51T400 5T302 -12Q230 -12 167 21T57 101L94 138Q142 90 195 63T304 35Q346
35 380 48T439 86T478 142T492 212Q492 249 478 279T439 332T378 366T300 379Q251 379 213 366T142 335L102 361L122 700Z" />
<glyph unicode="6" glyph-name="six" horiz-adv-x="642" d="M518 591Q477 627 436 646T345 665Q292 665 249 639T175 564T130 449T116 302Q131 327 151 350T197 392T258 421T335 432Q383 432 427 417T504 373T556 306T576 219Q576 169 557 127T505 53T428 5T331
-12Q277 -12 231 7T153 58Q131 80 115 105T87 162T70 235T64 332Q64 411 84 480T141 601T231 682T349 712Q409 712 457 691T551 631L518 591ZM522 217Q522 253 508 284T469 337T409 373T332 386Q289 386 253 371T192 332T152 276T137 212Q137 174 152 142T193 86T256
49T335 35Q377 35 411 49T470 88T508 146T522 217Z" />
<glyph unicode="7" glyph-name="seven" horiz-adv-x="587" d="M68 700H532V662L213 0H156L474 650H68V700Z" />
<glyph unicode="8" glyph-name="eight" horiz-adv-x="630" d="M575 188Q575 144 555 108T500 45T418 5T315 -10Q260 -10 213 4T130 45T75 107T55 188Q55 219 67 246T99 295T148 334T210 362Q184 372 161 387T119 423T90 468T79 526Q79 567 99 601T152 659T227
696T315 710Q360 710 402 697T478 659T531 601T551 526Q551 494 540 469T511 423T470 388T420 362Q453 351 481 334T530 295T563 246T575 188ZM497 526Q497 556 483 581T445 624T387 653T315 663Q277 663 244 653T186 625T147 581T133 526Q133 493 147 467T187
421T245 392T315 381Q352 381 385 391T443 421T482 466T497 526ZM521 186Q521 219 505 246T461 294T396 326T315 337Q272 337 235 326T169 295T125 247T109 186Q109 156 123 129T163 82T228 49T315 37Q363 37 401 49T466 81T507 129T521 186Z" />
<glyph unicode="9" glyph-name="nine" horiz-adv-x="642" d="M578 367Q578 284 557 215T497 95T406 16T293 -12Q227 -12 177 13T82 75L115 115Q160 75 203 55T294 35Q347 35 391 62T466 137T513 251T526 396Q511 369 491 345T443 302T383 272T308 261Q255 261
211 277T134 323T84 391T66 476Q66 525 84 568T134 643T212 693T312 712Q369 712 413 693T490 641Q511 620 527 595T555 536T572 462T578 367ZM505 486Q505 523 490 556T449 613T386 651T306 665Q263 665 229 650T170 608T133 549T120 478Q120 441 134 410T173
356T233 320T310 307Q355 307 391 322T452 363T491 420T505 486Z" />
<glyph unicode=":" glyph-name="colon" horiz-adv-x="240" d="M87 425V510H153V425H87ZM87 0V85H153V0H87Z" />
<glyph unicode=";" glyph-name="semicolon" horiz-adv-x="240" d="M87 425V510H153V425H87ZM58 -82Q90 -65 103 -47T114 0H87V85H153V11Q153 -36 134 -63T70 -107L58 -82Z" />
<glyph unicode="&lt;" glyph-name="less" horiz-adv-x="640" d="M537 613V559L134 353L537 145V91L73 332V372L537 613Z" />
<glyph unicode="=" glyph-name="equal" horiz-adv-x="640" d="M547 490V439H93V490H547ZM547 265V214H93V265H547Z" />
<glyph unicode="&gt;" glyph-name="greater" horiz-adv-x="640" d="M103 91V145L506 351L103 559V613L567 372V332L103 91Z" />
<glyph unicode="?" glyph-name="question" horiz-adv-x="534" d="M221 350Q321 352 375 395T429 511Q429 542 418 569T385 618T332 651T263 663Q203 663 156 636T70 560L34 590Q77 643 131 676T265 709Q314 709 354 694T423 652T466 589T482 513Q482 466 465 430T420
369T352 328T270 308L261 183H229L216 345L221 350ZM212 0V85H278V0H212Z" />
<glyph unicode="@" glyph-name="at" horiz-adv-x="980" d="M927 316Q927 252 911 206T868 131T810 87T745 73Q692 73 657 98T609 166Q594 147 577 130T538 101T493 81T438 73Q402 73 370 86T313 122T275 178T261 251Q261 305 281 350T335 429T410 481T494 500Q524
500 548 493T590 472T621 443T643 411L657 486L705 480L668 269Q659 216 659 197Q659 154 682 132T749 109Q775 109 801 121T847 158T880 222T893 316Q893 385 863 450T778 567T651 649T491 680Q404 680 330 648T202 561T118 432T87 274Q87 190 117 117T202 -12T333
-98T499 -130Q574 -130 632 -113T749 -62L764 -87Q706 -122 642 -142T499 -162Q403 -162 322 -128T180 -34T87 105T53 274Q53 364 87 443T180 582T319 677T491 712Q583 712 662 680T801 594T893 467T927 316ZM626 313Q626 343 616 368T589 412T547 441T494 452Q460
452 428 437T370 396T329 333T313 255Q313 191 350 156T446 120Q481 120 513 136T571 180T611 241T626 313Z" />
<glyph unicode="A" glyph-name="A" horiz-adv-x="790" d="M689 0L600 196H187L98 0H44L370 705H420L746 0H689ZM394 648L209 243H578L394 648Z" />
<glyph unicode="B" glyph-name="B" horiz-adv-x="722" d="M659 191Q659 147 641 112T590 52T511 14T408 0H104V700H393Q444 700 486 688T557 654T603 599T620 528V526Q620 490 610 463T582 416T544 383T501 360Q532 352 561 339T611 305T646 257T659 193V191ZM567
523Q567 581 522 616T392 652H156V377H387Q426 377 459 386T516 414T553 459T567 521V523ZM606 193Q606 258 552 293T393 329H156V48H410Q500 48 553 86T606 191V193Z" />
<glyph unicode="C" glyph-name="C" horiz-adv-x="738" d="M699 110Q671 83 642 61T579 22T506 -3T421 -12Q346 -12 282 16T172 92T99 207T73 348V350Q73 424 99 490T172 605T283 683T423 712Q470 712 508 704T578 681T639 646T695 600L658 562Q635 584 610 603T557
635T495 657T422 665Q359 665 305 641T212 575T150 475T127 352V350Q127 284 150 227T212 127T306 60T423 35Q499 35 555 63T664 144L699 110V110Z" />
<glyph unicode="D" glyph-name="D" horiz-adv-x="782" d="M709 350Q709 276 682 212T606 101T488 27T337 0H104V700H337Q419 700 487 674T605 600T682 490T709 352V350ZM655 350Q655 412 633 467T569 563T469 628T337 652H156V48H337Q410 48 469 71T569 135T632
230T655 348V350Z" />
<glyph unicode="E" glyph-name="E" horiz-adv-x="670" d="M104 0V700H602V652H156V377H557V329H156V48H607V0H104Z" />
<glyph unicode="F" glyph-name="F" horiz-adv-x="656" d="M156 652V365H552V317H156V0H104V700H597V652H156Z" />
<glyph unicode="G" glyph-name="G" horiz-adv-x="784" d="M700 93Q652 51 582 20T425 -12Q342 -12 277 16T166 94T97 208T73 348V350Q73 421 97 486T167 602T277 682T419 712Q462 712 497 706T563 688T621 659T675 620L641 581Q600 617 548 641T416 665Q352 665
299 640T208 572T148 472T127 352V350Q127 282 147 224T207 124T301 58T427 34Q460 34 492 40T552 58T606 83T650 114V315H416V363H700V93V93Z" />
<glyph unicode="H" glyph-name="H" horiz-adv-x="760" d="M604 0V328H156V0H104V700H156V376H604V700H656V0H604Z" />
<glyph unicode="I" glyph-name="I" horiz-adv-x="274" d="M111 0V700H163V0H111Z" />
<glyph unicode="J" glyph-name="J" horiz-adv-x="549" d="M456 228Q456 169 440 125T396 50T330 5T249 -10Q171 -10 120 26T37 121L80 148Q96 121 113 100T151 65T196 44T252 37Q284 37 312 49T360 84T392 143T404 224V700H456V228V228Z" />
<glyph unicode="K" glyph-name="K" horiz-adv-x="715" d="M618 0L330 354L156 178V0H104V700H156V240L602 700H673L367 391L686 0H618Z" />
<glyph unicode="L" glyph-name="L" horiz-adv-x="619" d="M104 0V700H156V48H567V0H104Z" />
<glyph unicode="M" glyph-name="M" horiz-adv-x="868" d="M712 0V608L435 205H431L154 608V0H104V700H153L434 286L715 700H764V0H712Z" />
<glyph unicode="N" glyph-name="N" horiz-adv-x="790" d="M647 0L154 622V0H104V700H153L636 91V700H686V0H647Z" />
<glyph unicode="O" glyph-name="O" horiz-adv-x="850" d="M777 350Q777 278 752 213T680 97T569 18T424 -12Q344 -12 280 17T169 96T98 211T73 348V350Q73 422 98 487T170 603T281 682T426 712Q505 712 570 683T681 604T752 489T777 352Q778 351 777 350ZM723
350Q723 415 701 472T639 572T544 640T424 665Q359 665 305 641T211 574T149 474T127 352V350Q127 285 149 228T211 128T306 60T426 35Q491 35 545 59T639 126T701 226T723 348V350Z" />
<glyph unicode="P" glyph-name="P" horiz-adv-x="668" d="M618 484Q618 429 596 387T537 317T450 275T345 261H156V0H104V700H358Q416 700 463 686T545 644T599 577T618 486V484ZM566 483Q566 525 551 556T507 609T440 641T354 652H156V309H348Q397 309 437 321T505
355T550 410T566 481V483Z" />
<glyph unicode="Q" glyph-name="Q" horiz-adv-x="850" d="M748 -21L650 68Q605 30 549 9T424 -12Q344 -12 280 17T169 96T98 211T73 348V350Q73 422 98 487T170 603T281 682T426 712Q505 712 570 683T681 604T752 489T777 352Q778 351 777 350Q777 280 754 217T685
103L785 19L748 -21ZM723 350Q723 415 701 472T639 572T544 640T424 665Q359 665 305 641T211 574T149 474T127 352V350Q127 285 149 228T211 128T306 60T426 35Q481 35 528 52T612 101L476 217L513 258L647 136Q683 178 703 232T723 348V350Z" />
<glyph unicode="R" glyph-name="R" horiz-adv-x="723" d="M608 0L385 290H156V0H104V700H398Q455 700 501 686T579 645T630 582T648 501V499Q648 455 633 421T590 361T525 321T443 299L674 0H608ZM596 499Q596 570 544 611T395 652H156V337H392Q436 337 473 348T538
379T580 429T596 497V499Z" />
<glyph unicode="S" glyph-name="S" horiz-adv-x="640" d="M573 181Q573 139 556 104T508 43T435 4T341 -10Q257 -10 190 18T59 102L93 141Q122 114 150 95T209 63T272 44T344 37Q383 37 416 47T472 76T508 120T521 176V178Q521 206 513 228T482 268T421 300T323
327Q260 340 215 357T142 398T100 453T87 524V526Q87 565 104 598T151 657T222 696T312 710Q388 710 443 689T552 625L519 584Q469 627 419 645T310 663Q271 663 240 653T186 624T151 582T139 531V529Q139 501 147 479T178 438T241 404T343 376Q465 351 519 306T573
183V181V181Z" />
<glyph unicode="T" glyph-name="T" horiz-adv-x="648" d="M350 652V0H298V652H54V700H594V652H350Z" />
<glyph unicode="U" glyph-name="U" horiz-adv-x="760" d="M667 297Q667 222 646 165T587 68T497 9T380 -11Q317 -11 265 8T174 66T114 161T93 291V700H145V296Q145 171 207 104T382 36Q435 36 478 52T551 100T598 180T615 291V700H667V297V297Z" />
<glyph unicode="V" glyph-name="V" horiz-adv-x="750" d="M398 -5H352L44 700H102L376 56L651 700H706L398 -5Z" />
<glyph unicode="W" glyph-name="W" horiz-adv-x="1102" d="M798 -5H756L551 603L346 -5H304L50 700H108L328 77L533 702H573L778 77L998 700H1052L798 -5Z" />
<glyph unicode="X" glyph-name="X" horiz-adv-x="722" d="M609 0L360 323L112 0H51L330 357L61 700H123L362 392L600 700H661L393 358L671 0H609Z" />
<glyph unicode="Y" glyph-name="Y" horiz-adv-x="716" d="M384 278V0H332V277L32 700H97L359 324L622 700H684L384 278Z" />
<glyph unicode="Z" glyph-name="Z" horiz-adv-x="688" d="M68 0V29L547 653H85V700H621V671L142 47H621V0H68Z" />
<glyph unicode="[" glyph-name="bracketleft" horiz-adv-x="430" d="M371 662H144V-92H371V-130H98V700H371V662Z" />
<glyph unicode="\" glyph-name="backslash" horiz-adv-x="500" d="M518 -128H469L-3 798H46L518 -128Z" />
<glyph unicode="]" glyph-name="bracketright" horiz-adv-x="430" d="M332 700V-130H59V-92H286V662H59V700H332Z" />
<glyph unicode="^" glyph-name="asciicircum" horiz-adv-x="500" d="M121 493H70L228 703H272L430 493H377L249 660L121 493Z" />
<glyph unicode="_" glyph-name="underscore" horiz-adv-x="600" d="M602 -116V-160H-2V-116H602Z" />
<glyph unicode="`" glyph-name="grave" horiz-adv-x="500" d="M157 698L218 728L306 595H264L157 698Z" />
<glyph unicode="a" glyph-name="a" horiz-adv-x="574" d="M443 0V85Q430 67 412 50T369 19T315 -3T248 -12Q212 -12 177 -2T114 28T69 78T51 148V150Q51 190 67 221T113 273T183 305T274 316Q328 316 367 310T443 294V316Q443 394 399 433T275 472Q228 472 189
461T115 431L97 474Q139 494 182 506T278 518Q377 518 434 468T491 318V0H443ZM444 249Q412 257 369 264T271 272Q190 272 147 240T103 153V151Q103 123 115 102T147 65T195 42T251 34Q290 34 325 45T386 77T428 127T444 191V249Z" />
<glyph unicode="b" glyph-name="b" horiz-adv-x="660" d="M600 255Q600 193 579 144T522 60T443 7T352 -12Q314 -12 282 -2T225 25T179 64T142 110V0H93V730H142V396Q158 421 179 444T225 484T282 511T352 522Q398 522 442 504T522 452T578 369T600 257V255ZM547
255Q547 305 531 346T488 415T424 459T347 475Q307 475 270 459T203 414T157 345T139 256V254Q139 205 156 165T203 96T269 51T347 35Q389 35 425 50T489 93T531 161T547 253V255Z" />
<glyph unicode="c" glyph-name="c" horiz-adv-x="571" d="M526 89Q487 45 438 17T318 -12Q263 -12 216 9T133 67T78 151T58 253V255Q58 309 78 357T133 442T215 500T318 522Q354 522 383 515T438 494T483 464T522 428L487 392Q454 426 414 451T317 476Q273 476
236 459T171 413T127 343T111 257V255Q111 209 127 169T172 98T239 51T321 34Q375 34 417 58T492 119L526 89V89Z" />
<glyph unicode="d" glyph-name="d" horiz-adv-x="660" d="M518 0V114Q501 89 481 66T435 26T378 -1T308 -12Q262 -12 218 6T138 58T82 141T60 253V255Q60 317 81 366T138 450T217 503T308 522Q346 522 378 512T435 485T481 446T518 400V730H567V0H518ZM521 256Q521
305 504 345T457 414T391 459T313 475Q271 475 235 460T171 417T129 349T113 257V255Q113 205 129 164T172 95T236 51T313 35Q353 35 390 51T457 96T503 165T521 254V256Z" />
<glyph unicode="e" glyph-name="e" horiz-adv-x="584" d="M110 235Q113 187 131 150T176 87T237 48T310 34Q370 34 411 57T485 114L519 84Q480 42 431 15T308 -12Q258 -12 213 7T133 61T78 145T58 254V256Q58 311 76 359T127 444T204 501T300 522Q354 522 397
502T470 445T517 361T534 255V253Q534 248 534 245T533 235H110ZM481 279Q478 318 466 353T431 416T375 460T298 477Q260 477 227 462T170 421T129 358T110 279H481Z" />
<glyph unicode="f" glyph-name="f" horiz-adv-x="362" d="M351 675Q329 682 312 685T275 688Q172 688 172 559V510H350V465H172V0H123V465H49V510H123V560Q123 643 163 688T275 733Q298 733 316 730T351 721V675V675Z" />
<glyph unicode="g" glyph-name="g" horiz-adv-x="660" d="M567 79Q567 21 549 -24T497 -99T417 -146T317 -162Q188 -162 83 -84L112 -44Q205 -116 318 -116Q362 -116 398 -104T461 -66T503 -4T518 82V156Q501 132 480 111T433 74T375 48T305 38Q259 38 215 55T137
103T81 179T60 278V280Q60 335 81 380T136 456T215 505T305 522Q343 522 375 513T434 488T481 451T518 408V510H567V79ZM521 281Q521 325 503 361T456 422T388 461T310 475Q270 475 234 462T171 423T129 363T113 282V280Q113 237 129 201T172 140T235 100T310 85Q350
85 388 99T455 138T503 199T521 279V281Z" />
<glyph unicode="h" glyph-name="h" horiz-adv-x="613" d="M481 0V303Q481 382 439 429T319 477Q281 477 249 464T193 426T156 369T142 295V0H93V730H142V415Q168 460 212 491T326 522Q374 522 412 507T476 463T516 397T530 312V0H481Z" />
<glyph unicode="i" glyph-name="i" horiz-adv-x="249" d="M94 643V710H155V643H94ZM100 0V510H149V0H100Z" />
<glyph unicode="j" glyph-name="j" horiz-adv-x="249" d="M94 643V710H155V643H94ZM149 -45Q149 -105 120 -134T40 -163Q19 -163 -1 -159V-116Q8 -118 19 -118T39 -119Q66 -119 83 -102T100 -48V510H149V-45Z" />
<glyph unicode="k" glyph-name="k" horiz-adv-x="560" d="M468 0L266 249L142 124V0H93V730H142V183L458 510H523L300 284L530 0H468Z" />
<glyph unicode="l" glyph-name="l" horiz-adv-x="249" d="M100 0V730H149V0H100Z" />
<glyph unicode="m" glyph-name="m" horiz-adv-x="951" d="M815 0V303Q815 386 775 431T664 477Q632 477 603 465T551 430T516 374T503 297V0H454V306Q454 386 414 431T305 477Q271 477 241 463T189 424T155 366T142 294V0H93V510H142V419Q154 439 169 457T205
490T251 513T312 522Q345 522 372 513T421 489T457 454T484 412Q496 433 513 453T552 488T603 513T668 522Q713 522 749 507T811 464T850 397T864 309V0H815Z" />
<glyph unicode="n" glyph-name="n" horiz-adv-x="613" d="M481 0V303Q481 382 439 429T319 477Q281 477 249 464T193 426T156 369T142 295V0H93V510H142V415Q168 460 212 491T326 522Q374 522 412 507T476 463T516 397T530 312V0H481Z" />
<glyph unicode="o" glyph-name="o" horiz-adv-x="640" d="M582 255Q582 201 563 153T508 68T424 10T319 -12Q262 -12 215 9T132 67T78 151T58 253V255Q58 309 77 357T132 442T216 500T321 522Q378 522 425 501T508 443T562 359T582 257V255ZM529 255Q529 301 513
341T469 412T402 459T319 476Q274 476 236 459T170 412T127 342T111 257V255Q111 209 127 169T171 98T238 51T321 34Q366 34 404 51T470 98T513 168T529 253V255Z" />
<glyph unicode="p" glyph-name="p" horiz-adv-x="660" d="M600 255Q600 193 579 144T522 60T443 7T352 -12Q314 -12 282 -2T225 25T179 64T142 110V-160H93V510H142V396Q158 421 179 444T225 484T282 511T352 522Q398 522 442 504T522 452T578 369T600 257V255ZM547
255Q547 305 531 346T488 415T424 459T347 475Q307 475 270 459T203 414T157 345T139 256V254Q139 205 156 165T203 96T269 51T347 35Q389 35 425 50T489 93T531 161T547 253V255Z" />
<glyph unicode="q" glyph-name="q" horiz-adv-x="660" d="M518 -160V114Q501 89 481 66T435 26T378 -1T308 -12Q262 -12 218 6T138 58T82 141T60 253V255Q60 317 81 366T138 450T217 503T308 522Q346 522 378 512T435 485T481 446T518 400V510H567V-160H518ZM521
256Q521 305 504 345T457 414T391 459T313 475Q271 475 235 460T171 417T129 349T113 257V255Q113 205 129 164T172 95T236 51T313 35Q353 35 390 51T457 96T503 165T521 254V256Z" />
<glyph unicode="r" glyph-name="r" horiz-adv-x="400" d="M363 464Q319 464 279 448T209 399T160 319T142 209V0H93V510H142V365Q157 399 180 428T232 477T295 508T368 518V464H363Z" />
<glyph unicode="s" glyph-name="s" horiz-adv-x="497" d="M434 139Q434 105 421 78T383 31T327 1T258 -10Q202 -10 146 10T49 64L78 103Q120 71 166 54T261 36Q313 36 348 62T384 133V135Q384 157 373 173T343 201T300 221T249 237Q218 246 187 256T130 281T90
320T74 377V379Q74 410 86 435T121 480T174 509T242 520Q288 520 336 505T423 464L397 423Q362 446 322 460T240 474Q187 474 156 449T124 385V383Q124 362 136 347T167 320T213 301T266 284Q297 275 327 265T381 238T419 198T434 141V139V139Z" />
<glyph unicode="t" glyph-name="t" horiz-adv-x="400" d="M346 9Q326 0 307 -4T263 -9Q233 -9 207 -1T162 24T131 68T120 131V465H46V510H120V673H169V510H348V465H169V136Q169 81 197 59T271 37Q290 37 307 41T346 55V9V9Z" />
<glyph unicode="u" glyph-name="u" horiz-adv-x="613" d="M471 0V95Q445 50 401 19T287 -12Q239 -12 201 3T137 47T97 113T83 198V510H132V207Q132 128 174 81T294 33Q331 33 363 46T420 84T457 141T471 215V510H520V0H471Z" />
<glyph unicode="v" glyph-name="v" horiz-adv-x="582" d="M312 -4H270L41 510H98L291 55L486 510H541L312 -4Z" />
<glyph unicode="w" glyph-name="w" horiz-adv-x="861" d="M625 -4H583L431 433L278 -4H236L49 510H104L258 62L412 512H451L605 62L759 510H812L625 -4Z" />
<glyph unicode="x" glyph-name="x" horiz-adv-x="570" d="M464 0L284 227L104 0H45L254 260L53 510H114L286 294L458 510H517L316 261L525 0H464Z" />
<glyph unicode="y" glyph-name="y" horiz-adv-x="588" d="M325 -18Q291 -98 251 -130T155 -163Q126 -163 103 -158T54 -141L71 -98Q91 -108 110 -112T158 -117Q178 -117 195 -111T227 -91T256 -53T284 3L39 510H96L308 54L492 510H546L325 -18Z" />
<glyph unicode="z" glyph-name="z" horiz-adv-x="554" d="M58 0V28L426 466H72V510H499V482L131 44H499V0H58Z" />
<glyph unicode="{" glyph-name="braceleft" horiz-adv-x="480" d="M423 683Q366 668 332 653T281 618T259 571T254 506V431Q254 398 247 374T226 333T193 305T150 287Q175 279 194 268T227 241T247 200T254 143V68Q254 30 259 3T281 -44T332 -79T423 -109L416
-141Q349 -128 308 -110T244 -66T213 -9T205 62V141Q205 170 200 193T181 233T144 259T85 268H59V306H85Q120 306 143 315T180 340T199 380T205 433V512Q205 551 213 583T243 640T307 683T416 715L423 683V683Z" />
<glyph unicode="|" glyph-name="bar" horiz-adv-x="286" d="M121 -128V798H165V-128H121Z" />
<glyph unicode="}" glyph-name="braceright" horiz-adv-x="480" d="M57 -109Q114 -94 148 -79T199 -44T221 3T226 68V143Q226 176 233 200T254 241T287 269T330 287Q305 295 286 306T253 333T233 374T226 431V506Q226 544 221 571T199 618T148 653T57 683L64 715Q131
702 172 684T236 640T267 583T275 512V433Q275 404 280 381T299 341T336 315T395 306H421V268H395Q360 268 337 259T300 234T281 194T275 141V62Q275 23 267 -9T237 -66T173 -109T64 -141L57 -109V-109Z" />
<glyph unicode="~" glyph-name="asciitilde" horiz-adv-x="460" d="M378 344Q364 290 344 271T294 251Q280 251 263 257T229 271T195 285T166 292Q148 292 138 282T116 242L82 251Q96 305 116 324T166 344Q180 344 197 338T231 324T265 310T294 303Q312 303 322
313T344 353L378 344V344Z" />
</font>
</defs>
</svg>
